PathFileType	4	(X/Y/Z)	s10c0203.trc
DataRate	CameraRate	NumFrames	NumMarkers	Units	OrigDataRate	OrigDataStartFrame	OrigNumFrames
200	200	4	49	mm	200	1250	2000
Frame#	Time	racr			lacr			c7			jug			rlel			rdr			llel			ldr			s2			lic			ric			lasi			rasi			rpsi			lpsi			rgt			lgt			rth1			rth2			rth3			rth4			rlfc			rmfc			rsh1			rsh2			rsh3			rsh4			rlmal			rmmal			rcal			rtoe			rmt5			lth1			lth2			lth4			lth3			llfc			lmfc			llmal			lcal			lmt5			lsh1			lsh2			lsh3			lsh4			ltoe			SBIKE			LBIKE			RBIKE			
		X1	Y1	Z1	X2	Y2	Z2	X3	Y3	Z3	X4	Y4	Z4	X5	Y5	Z5	X6	Y6	Z6	X7	Y7	Z7	X8	Y8	Z8	X9	Y9	Z9	X10	Y10	Z10	X11	Y11	Z11	X12	Y12	Z12	X13	Y13	Z13	X14	Y14	Z14	X15	Y15	Z15	X16	Y16	Z16	X17	Y17	Z17	X18	Y18	Z18	X19	Y19	Z19	X20	Y20	Z20	X21	Y21	Z21	X22	Y22	Z22	X23	Y23	Z23	X24	Y24	Z24	X25	Y25	Z25	X26	Y26	Z26	X27	Y27	Z27	X28	Y28	Z28	X29	Y29	Z29	X30	Y30	Z30	X31	Y31	Z31	X32	Y32	Z32	X33	Y33	Z33	X34	Y34	Z34	X35	Y35	Z35	X36	Y36	Z36	X37	Y37	Z37	X38	Y38	Z38	X39	Y39	Z39	X40	Y40	Z40	X41	Y41	Z41	X42	Y42	Z42	X43	Y43	Z43	X44	Y44	Z44	X45	Y45	Z45	X46	Y46	Z46	X47	Y47	Z47	X48	Y48	Z48	X49	Y49	Z49	
1250	6.2500	405.583540	1254.330457	-45.531484	418.008709	1275.669215	-360.006677	369.525368	1324.433599	-213.722550	375.343373	1175.325563	-208.348149	415.335216	1006.350150	53.714752	596.475632	912.475041	-25.908757	437.570536	1039.285833	-511.304299	600.918378	907.618853	-437.087735	-129.326026	1084.510028	-236.367511	39.717121	1099.583795	-379.840066	30.647860	1116.980743	-94.776741	70.591502	1018.985547	-342.816803	54.761694	1041.075263	-88.163713	-96.939847	1146.723289	-185.415355	-81.220430	1148.789003	-295.090812	-57.303724	996.123913	-38.792246	-40.166569	962.626211	-416.641047	46.728657	877.594701	-11.985072	128.058290	842.039428	-23.440009	177.749861	773.568431	-36.262878	149.645696	872.195720	-26.845344	265.492184	710.222784	-50.059420	265.298280	703.367315	-165.380653	220.029709	600.737440	-22.723853	235.842536	513.381800	-33.194785	206.579823	432.518541	-39.383706	267.958644	514.035416	-54.938023	196.712818	327.987720	-55.361848	219.304609	350.137167	-135.730152	147.655056	300.559469	-103.169615	389.301333	312.322604	-103.768228	314.347243	270.869004	-39.561645	59.858413	873.623273	-423.541468	141.383111	848.830083	-406.221010	159.187372	879.476385	-396.575850	201.205064	784.169340	-395.461918	280.532601	716.237538	-374.624048	269.728223	706.901465	-252.943445	-30.727289	503.057747	-381.021176	-93.031068	506.966506	-335.345367	8.182067	362.524386	-399.956779	175.010894	662.356442	-409.247444	126.592759	588.853448	-394.287415	45.950097	551.107248	-392.760538	146.754694	569.730913	-368.013754	87.293207	341.616845	-349.937700	-217.787854	830.747872	-214.077360	-103.922839	80.532512	-418.376205	-103.953058	80.545423	-18.346499	
1251	6.2550	409.106904	1254.552048	-49.473364	414.638752	1277.649628	-364.768214	368.502341	1325.883731	-217.379795	375.468157	1176.971457	-212.057291	416.727621	1007.250992	53.801793	596.660304	912.436637	-25.952535	436.735937	1039.407485	-511.044323	600.842007	907.765333	-436.970378	-129.263920	1082.460615	-233.592356	38.234328	1100.078590	-377.888993	31.857564	1115.435932	-91.815870	70.437243	1018.957556	-340.951053	54.952909	1038.838145	-85.454765	-97.210470	1144.459693	-181.754391	-83.263629	1147.743828	-292.801243	-57.997927	991.349238	-36.347159	-38.188967	962.113251	-415.442226	44.590242	870.935774	-10.658195	124.915420	834.220010	-22.992197	173.040586	764.961932	-37.209094	147.312642	863.951628	-25.742776	259.563177	700.556737	-51.117322	259.463004	694.351540	-165.903529	213.684391	591.513548	-23.143736	230.304138	504.261152	-33.228531	201.869947	423.017104	-39.671029	262.760733	505.087922	-54.577138	193.640065	318.408790	-55.533697	216.840983	340.343054	-135.853667	144.673172	291.702778	-103.387330	386.599532	301.529394	-102.868048	311.114552	260.512661	-39.637347	64.405402	876.104393	-421.848141	146.482600	854.244347	-403.546712	163.117966	885.717335	-393.755102	208.741944	791.673119	-394.119573	287.830359	725.692011	-372.843491	276.866752	714.207451	-251.159182	-25.315059	513.740383	-380.797743	-87.641651	518.579182	-335.560967	11.800082	372.491527	-400.092320	181.699264	671.394374	-408.111385	132.655445	598.232365	-393.710637	51.630923	561.198998	-392.281553	152.592548	578.816178	-367.164205	90.730828	350.793809	-349.910567	-217.774595	830.734327	-213.996923	-103.915040	80.506645	-418.369723	-103.942738	80.532273	-18.350307	
1252	6.2600	412.533550	1254.676902	-53.552302	411.178806	1279.523975	-369.643762	367.667807	1327.221077	-220.204192	375.596300	1178.709105	-215.977783	418.078360	1008.180854	53.897841	596.832042	912.356089	-26.005651	435.869135	1039.505480	-510.855711	600.793125	907.916446	-437.013130	-129.188185	1080.580971	-230.313431	36.486960	1100.482549	-375.745402	33.130900	1113.751916	-88.592949	70.263725	1018.976307	-339.148138	55.365408	1036.556334	-82.632226	-97.458591	1142.030312	-177.544250	-84.713230	1146.688553	-289.196918	-58.242425	986.996955	-33.556495	-35.888100	961.787447	-414.453425	42.516793	865.279123	-9.443978	121.861392	827.042958	-22.731665	168.116287	756.707547	-37.956971	144.879098	856.183254	-24.617082	253.456748	691.228908	-51.989660	252.249075	685.249703	-166.782924	207.205103	582.354077	-23.455447	224.564804	495.129352	-33.384699	196.711115	413.785272	-40.112521	257.187932	496.442999	-54.348085	190.085392	309.003307	-55.848529	213.884589	330.528775	-136.212244	141.204432	282.993589	-103.681057	383.257857	290.416554	-103.199550	307.317060	250.399013	-39.637389	69.446065	879.745567	-420.326367	151.457189	860.301480	-400.838034	166.906907	892.321687	-390.440896	215.478963	799.730247	-392.064322	295.215885	735.851453	-370.920644	283.529152	721.264133	-249.485716	-19.339650	524.221836	-380.439558	-81.522345	530.208278	-336.231062	16.231363	382.389442	-400.192100	187.818353	680.308178	-406.159530	138.913887	607.857442	-392.638247	57.745420	571.176018	-391.718297	158.735877	588.185918	-366.397059	94.838973	359.807368	-349.867864	-217.769899	830.735125	-213.896377	-103.919007	80.530662	-418.352463	-103.940306	80.521748	-18.344139	
1253	6.2650	415.814777	1254.787695	-57.757474	407.519284	1281.322837	-374.573681	366.542917	1328.291183	-223.354271	375.579387	1180.587191	-220.512401	419.446306	1009.227895	53.951533	596.979437	912.281964	-26.015003	435.025712	1039.507217	-510.649033	600.737674	907.967164	-437.014107	-128.967139	1078.807061	-226.750816	34.697233	1101.119486	-373.777453	34.521586	1112.134272	-85.301844	70.169658	1019.199397	-337.505923	55.881934	1034.379710	-80.059337	-96.176955	1138.959976	-174.785094	-85.365998	1145.706688	-285.024139	-58.103005	983.516790	-30.849290	-34.234194	961.673042	-412.959596	40.507408	860.247833	-8.369953	118.978626	820.788276	-22.231980	163.148833	749.126182	-38.433061	142.506739	848.837148	-23.877699	246.970852	682.036985	-52.651252	247.407650	676.505596	-166.989560	200.775869	573.421607	-23.763809	218.636950	486.394799	-33.630063	191.238418	404.735816	-40.533150	251.298012	487.774666	-54.486066	186.071890	300.006921	-56.358058	210.233521	321.149841	-136.715344	138.102213	273.313785	-105.111983	379.291816	279.877730	-103.379201	302.898934	240.538702	-39.752924	73.536593	883.717314	-417.735465	156.138722	867.229591	-398.067639	170.222953	899.287337	-386.246846	222.486360	808.937820	-390.564718	302.568177	746.531607	-368.714090	289.479869	728.928421	-247.890847	-12.724680	534.365838	-380.097122	-74.774399	540.441799	-335.716813	21.279997	392.101139	-400.282306	194.797419	689.795572	-404.806517	145.645618	617.536562	-391.675907	64.301799	581.139497	-391.171935	165.349927	597.606837	-365.441873	99.578784	368.517494	-349.942926	-217.766729	830.715779	-213.777254	-103.937751	80.503468	-418.370982	-103.944571	80.498265	-18.316998	
